<svg width="673" height="520" viewBox="0 0 673 520" fill="none" xmlns="http://www.w3.org/2000/svg">
<path fill-rule="evenodd" clip-rule="evenodd" d="M535.124 180.464C546.114 165.597 566.248 160.522 582.565 169.337C598.883 178.152 605.774 197.826 599.493 215.237L599.858 215.434L519.095 366.375L454 331.21L531.89 185.638C531.949 185.524 532.01 185.41 532.071 185.297C532.131 185.183 532.193 185.07 532.254 184.956L534.763 180.269L535.124 180.464Z" fill="#FFE7D1"/>
<path fill-rule="evenodd" clip-rule="evenodd" d="M490.948 72.8446C490.954 72.8085 490.959 72.7725 490.965 72.7363C490.97 72.7002 490.976 72.6641 490.982 72.628L491.109 71.7944L491.097 71.7925C493.65 51.887 479.944 33.4464 460.087 30.3483C440.23 27.2501 421.626 40.6494 418.079 60.3996L418.067 60.3978L417.923 61.3398L373.55 349.847L446.592 361.244L490.948 72.8446Z" fill="#FFE7D1"/>
<path fill-rule="evenodd" clip-rule="evenodd" d="M368.989 36.361L374.707 313.357L300.817 314.897L295.1 37.9844C295.1 37.9566 295.099 37.9288 295.098 37.901C295.098 37.8732 295.097 37.8454 295.097 37.8177L295 33.1438L295.301 33.1375C297.248 14.8334 312.477 0.399991 331.277 0.00814792C350.078 -0.383696 365.889 13.4028 368.59 31.61L368.891 31.6037L368.989 36.361Z" fill="#FFE7D1"/>
<path fill-rule="evenodd" clip-rule="evenodd" d="M236.468 94.3324C236.124 92.1634 235.583 89.995 234.833 87.8491C228.077 68.4986 206.988 58.3151 187.73 65.1037C168.473 71.8921 158.338 93.0821 165.093 112.432C165.843 114.578 166.768 116.611 167.848 118.521L167.289 118.718L246.333 345.113L316.072 320.53L237.029 94.1348L236.468 94.3324Z" fill="#FFE7D1"/>
<path fill-rule="evenodd" clip-rule="evenodd" d="M97.0968 445.904C81.0874 438.378 70 422.073 70 403.171C70 377.119 91.0617 356 117.043 356C131.237 356 143.963 362.304 152.588 372.272L335 496.804L283.264 573L97.0968 445.904Z" fill="#FFE7D1"/>
<path d="M243.773 305.617L386.849 265.63L528.029 351.317L478.758 593.142H269.355L203.029 516.025L243.773 305.617Z" fill="#FFE7D1"/>
</svg>
