<svg width="22" height="28" viewBox="0 0 22 28" fill="none" xmlns="http://www.w3.org/2000/svg">
<path fill-rule="evenodd" clip-rule="evenodd" d="M17.4338 13.0499C17.8058 12.5477 18.4872 12.3764 19.0395 12.6741C19.5918 12.9718 19.825 13.6362 19.6124 14.2242L19.6248 14.2309L16.8913 19.3286L14.688 18.141L17.3243 13.2246C17.3263 13.2208 17.3284 13.2169 17.3304 13.2131C17.3325 13.2092 17.3346 13.2054 17.3367 13.2016L17.4216 13.0433L17.4338 13.0499Z" fill="#FFB46F"/>
<path fill-rule="evenodd" clip-rule="evenodd" d="M16.657 9.77286C16.6573 9.77163 16.6576 9.7704 16.6579 9.76916C16.6582 9.76793 16.6585 9.76669 16.6588 9.76546L16.6654 9.73785L16.665 9.73776C16.8062 9.0748 16.3949 8.41622 15.7336 8.25709C15.0724 8.09796 14.4077 8.49758 14.2334 9.15258L14.233 9.15248L14.2255 9.18379L11.93 18.7723L14.3624 19.3577L16.657 9.77286Z" fill="#FFE7D1"/>
<path fill-rule="evenodd" clip-rule="evenodd" d="M12.1478 8.25365L12.3414 17.6086L9.84046 17.6606L9.64698 8.30855C9.64696 8.30759 9.64694 8.30663 9.64692 8.30567C9.6469 8.3047 9.64688 8.30374 9.64686 8.30278L9.6436 8.145L9.65377 8.14479C9.71968 7.5266 10.2351 7.03914 10.8714 7.02591C11.5078 7.01268 12.0429 7.47829 12.1343 8.0932L12.1445 8.09299L12.1478 8.25365Z" fill="#FFE7D1"/>
<path fill-rule="evenodd" clip-rule="evenodd" d="M7.3196 9.94564C7.30794 9.87239 7.28961 9.79915 7.26426 9.72668C7.03559 9.07316 6.32182 8.72923 5.67001 8.9585C5.0182 9.18777 4.67517 9.90341 4.90384 10.5569C4.92919 10.6294 4.96052 10.6981 4.99706 10.7626L4.97815 10.7692L7.65348 18.4153L10.0139 17.585L7.33857 9.93897L7.3196 9.94564Z" fill="#FFE7D1"/>
<path fill-rule="evenodd" clip-rule="evenodd" d="M2.8391 22.2737C2.26067 22.0018 1.86006 21.4127 1.86006 20.7298C1.86006 19.7886 2.62105 19.0256 3.55977 19.0256C4.07262 19.0256 4.53243 19.2534 4.84407 19.6135L11.4348 24.1126L9.56551 26.8654L2.8391 22.2737Z" fill="#FFE7D1"/>
<path d="M7.47231 17.3217L12.3149 15.9712L17.0933 18.8651L15.4257 27.0323L8.3382 27.0323L6.0933 24.4278L7.47231 17.3217Z" fill="#FFE7D1"/>
<path d="M19 0L17 1.5L19 3V0Z" fill="#FFF7F0"/>
<path d="M22 1.5L20 0V3L22 1.5Z" fill="#FFB46F"/>
</svg>
